#!OML:ASF H:\Terrain\Patient Classification 1\Takeo\Monday\TakeoMonday.ASF
:FULLY-SPECIFIED
:DEGREES
938
root 17.7504 17.3699 0.30381 -5.8723 -27.5743 2.74443
lowerback 5.39087 7.61039 6.17241
upperback 2.40844 10.4185 1.98181
thorax 0.228337 5.24183 -1.80475
lowerneck -9.36158 -5.18222 -4.04259
upperneck 4.78938 -7.31016 11.5312
head 3.55061 -3.20006 3.72493
rclavicle -6.78974e-015 -1.43125e-014
rhumerus 63.802 54.9499 -47.7966
rradius 71.8839
rwrist -28.1529
rhand -38.4625 25.5269
rfingers 7.12502
rthumb -11.4854 -4.13851
lclavicle -6.78974e-015 -1.43125e-014
lhumerus 2.95159 -5.27897 63.2494
lradius 104.546
lwrist 23.5427
lhand -21.5895 20.2995
lfingers 7.12502
lthumb 4.80514 50.225
rfemur 12.7972 -12.4988 7.98536
rtibia 33.1616
rfoot -21.2007 -42.5067
rtoes 20.5513
lfemur -14.3449 -9.99788 -23.8654
ltibia 35.7528
lfoot -12.3463 1.53128
ltoes -3.0624
939
root 17.7567 17.377 0.280362 -5.82832 -28.4606 2.81045
lowerback 5.3143 7.53551 6.00183
upperback 2.4699 10.3017 2.00637
thorax 0.290712 5.1845 -1.67336
lowerneck -9.39613 -4.96996 -3.8214
upperneck 4.61109 -7.00178 11.1422
head 3.45447 -3.06582 3.59252
rclavicle -8.94531e-015 3.18055e-015
rhumerus 62.7962 55.2667 -47.8957
rradius 71.9816
rwrist -27.2465
rhand -38.6024 25.5306
rfingers 7.12502
rthumb -11.6203 -4.12722
lclavicle -8.94531e-015 3.18055e-015
lhumerus 2.09873 -5.6622 64.3499
lradius 104.414
lwrist 23.075
lhand -21.4959 20.2667
lfingers 7.12502
lthumb 4.89556 50.1901
rfemur 12.5124 -12.4649 7.89108
rtibia 32.9248
rfoot -21.3285 -42.3939
rtoes 20.4118
lfemur -14.4186 -9.4347 -23.8063
ltibia 35.7953
lfoot -12.3727 2.00825
ltoes -4.9956
940
root 17.7702 17.3764 0.257455 -6.06192 -29.3101 3.3245
lowerback 5.25149 7.41109 5.46539
upperback 2.60067 10.1017 1.90308
thorax 0.371758 5.08555 -1.4749
lowerneck -9.87664 -4.80069 -3.33433
upperneck 4.85002 -6.79805 10.482
head 3.54736 -2.96357 3.31494
rclavicle -9.40438e-014 2.06736e-014
rhumerus 61.5635 55.4422 -48.5338
rradius 72.0651
rwrist -27.3801
rhand -36.2574 27.3791
rfingers 7.12502
rthumb -9.35814 -2.39322
lclavicle -9.40438e-014 2.06736e-014
lhumerus 1.16774 -5.86295 65.2962
lradius 104.344
lwrist 22.7631
lhand -21.5879 20.1102
lfingers 7.12502
lthumb 4.8067 50.0357
rfemur 12.2839 -12.5815 7.19944
rtibia 32.6806
rfoot -21.1872 -42.2212
rtoes 21.1164
lfemur -14.4527 -9.01102 -24.1858
ltibia 35.7727
lfoot -12.4906 2.35274
ltoes -4.50644
941
root 17.7865 17.3748 0.230883 -6.30736 -30.2991 3.7738
lowerback 5.29771 7.37411 5.10587
upperback 2.68678 10.0356 1.79081
thorax 0.389159 5.05207 -1.39862
lowerneck -10.2448 -4.6315 -3.27162
upperneck 5.03378 -6.58433 10.3841
head 3.64255 -2.84556 3.28199
rclavicle -7.55879e-014 1.27222e-014
rhumerus 60.3416 55.5493 -48.8088
rradius 72.1159
rwrist -26.9825
rhand -35.3365 28.6543
rfingers 7.12502
rthumb -8.46952 -1.15583
lclavicle -7.55879e-014 1.27222e-014
lhumerus 0.210762 -6.12349 66.3322
lradius 104.201
lwrist 22.2613
lhand -21.7095 19.6493
lfingers 7.12502
lthumb 4.6893 49.5774
rfemur 12.0689 -12.5395 6.63726
rtibia 32.3852
rfoot -21.5441 -41.8908
rtoes 20.3818
lfemur -14.424 -8.44402 -24.4727
ltibia 35.6759
lfoot -12.7483 2.74222
ltoes -5.07506
942
root 17.8023 17.3782 0.20114 -6.22527 -31.4076 3.50168
lowerback 5.42212 7.47998 5.51825
upperback 2.77599 10.1962 1.86723
thorax 0.481679 5.13824 -1.54841
lowerneck -10.6048 -4.53367 -3.47487
upperneck 5.16185 -6.43523 10.4094
head 3.7373 -2.76101 3.32644
rclavicle -7.83584e-014 -4.77083e-015
rhumerus 59.0527 55.4213 -48.5024
rradius 72.2987
rwrist -25.8327
rhand -36.5525 28.5677
rfingers 7.12502
rthumb -9.64293 -1.19158
lclavicle -7.83584e-014 -4.77083e-015
lhumerus -0.495401 -6.81718 67.7205
lradius 103.834
lwrist 21.435
lhand -22.3969 18.8764
lfingers 7.12502
lthumb 4.02552 48.8181
rfemur 11.8668 -12.3559 6.91182
rtibia 32.0339
rfoot -22.1328 -41.6358
rtoes 19.0142
lfemur -14.3899 -7.93269 -24.0194
ltibia 35.5895
lfoot -12.8967 3.17524
ltoes -5.7244
943
root 17.8175 17.3905 0.168015 -5.86821 -32.5722 2.96843
lowerback 5.4428 7.32086 5.92258
upperback 2.78487 10.0016 1.83179
thorax 0.543134 5.04657 -1.79096
lowerneck -11.0726 -4.14831 -2.21177
upperneck 5.44106 -6.03157 9.42782
head 3.79826 -2.56208 2.84136
rclavicle -1.24986e-013 2.54444e-014
rhumerus 57.9758 55.6607 -48.934
rradius 72.6624
rwrist -25.5288
rhand -36.0511 28.6045
rfingers 7.12502
rthumb -9.15908 -1.17663
lclavicle -1.24986e-013 2.54444e-014
lhumerus -1.39665 -7.02439 68.3107
lradius 103.528
lwrist 20.8955
lhand -23.1309 18.2673
lfingers 7.12502
lthumb 3.31664 48.2213
rfemur 11.5153 -12.2081 7.46861
rtibia 31.6367
rfoot -23.1177 -41.3524
rtoes 19.91
lfemur -14.5611 -7.42948 -23.3022
ltibia 35.5453
lfoot -12.5745 3.65751
ltoes -4.93603
944
root 17.8287 17.4084 0.131861 -5.62472 -33.7428 2.74268
lowerback 5.54259 7.30138 6.01648
upperback 2.73266 9.98869 1.8091
thorax 0.453363 5.0375 -1.88126
lowerneck -11.1502 -4.01635 -1.73363
upperneck 5.43994 -5.87749 8.90379
head 3.76953 -2.50037 2.61386
rclavicle 9.90445e-014 1.74931e-014
rhumerus 56.286 55.7619 -49.6575
rradius 72.9836
rwrist -25.4804
rhand -35.3869 28.4575
rfingers 7.12502
rthumb -8.51819 -1.35069
lclavicle 9.90445e-014 1.74931e-014
lhumerus -2.38517 -7.3275 69.2669
lradius 103.27
lwrist 20.5288
lhand -23.3824 17.9448
lfingers 7.12502
lthumb 3.07376 47.9024
rfemur 11.098 -12.0613 7.725
rtibia 31.2932
rfoot -24.4015 -40.9115
rtoes 20.7395
lfemur -14.7148 -6.59543 -22.9087
ltibia 35.4725
lfoot -12.2044 4.13052
ltoes -6.04382
945
root 17.8398 17.4186 0.102248 -5.72029 -34.8266 2.9408
lowerback 5.58818 7.2579 5.73914
upperback 2.77657 9.91854 1.8394
thorax 0.415321 4.99877 -1.70887
lowerneck -11.2462 -3.76842 -1.83489
upperneck 5.50877 -5.53008 8.83655
head 3.78754 -2.33096 2.63287
rclavicle -2.60408e-014 9.54166e-015
rhumerus 55.1422 55.9842 -49.5434
rradius 73.2608
rwrist -25.3007
rhand -36.4083 27.2086
rfingers 7.12502
rthumb -9.5038 -2.55706
lclavicle -2.60408e-014 9.54166e-015
lhumerus -3.48432 -7.31033 70.4771
lradius 103.053
lwrist 20.3121
lhand -23.2567 18.1082
lfingers 7.12502
lthumb 3.19519 48.064
rfemur 10.7327 -11.9913 7.48151
rtibia 31.1914
rfoot -25.0271 -40.6054
rtoes 19.8982
lfemur -14.5656 -5.82961 -22.9347
ltibia 35.2221
lfoot -12.2475 4.50347
ltoes -7.40079
946
root 17.8522 17.4223 0.0714096 -5.96372 -35.8628 3.47284
lowerback 5.54438 7.19117 5.20549
upperback 2.8744 9.79755 1.7795
thorax 0.452182 4.93593 -1.47447
lowerneck -11.5053 -3.45614 -1.77059
upperneck 5.59364 -5.12079 8.74788
head 3.82907 -2.12404 2.62101
rclavicle 1.30254e-013 2.06736e-014
rhumerus 54.1678 56.0632 -49.4951
rradius 73.5275
rwrist -25.4668
rhand -36.8153 25.8639
rfingers 7.12502
rthumb -9.89642 -3.88349
lclavicle 1.30254e-013 2.06736e-014
lhumerus -4.30556 -7.22826 71.4945
lradius 102.723
lwrist 20.033
lhand -23.0258 18.6781
lfingers 7.12502
lthumb 3.41819 48.6304
rfemur 10.2023 -11.8515 6.98619
rtibia 31.2878
rfoot -25.6187 -40.3714
rtoes 18.1684
lfemur -14.4479 -5.31655 -23.2126
ltibia 34.8406
lfoot -12.2945 4.91454
ltoes -6.93171
